<svg width="166" height="164" viewBox="0 0 166 164" fill="none" xmlns="http://www.w3.org/2000/svg">
<g clip-path="url(#clip0_1_242)">
<g clip-path="url(#clip1_1_242)">
<circle cx="2.48614" cy="2.48611" r="2.48614" fill="#BBF816"/>
<circle cx="17.4031" cy="2.48614" r="2.48614" fill="#BBF816"/>
<circle cx="32.3191" cy="2.48614" r="2.48614" fill="#BBF816"/>
<circle cx="47.2364" cy="2.48611" r="2.48614" fill="#BBF816"/>
<circle cx="62.1541" cy="2.48614" r="2.48614" fill="#BBF816"/>
<circle cx="77.0704" cy="2.48611" r="2.48614" fill="#BBF816"/>
<circle cx="91.9871" cy="2.48611" r="2.48614" fill="#BBF816"/>
<circle cx="106.904" cy="2.48614" r="2.48614" fill="#BBF816"/>
<circle cx="121.82" cy="2.48614" r="2.48614" fill="#BBF816"/>
<circle cx="136.737" cy="2.48611" r="2.48614" fill="#BBF816"/>
<circle cx="151.655" cy="2.48611" r="2.48614" fill="#BBF816"/>
</g>
<g clip-path="url(#clip2_1_242)">
<circle cx="2.48614" cy="17.4029" r="2.48614" fill="#BBF816"/>
<circle cx="17.4031" cy="17.4029" r="2.48614" fill="#BBF816"/>
<circle cx="32.3191" cy="17.4029" r="2.48614" fill="#BBF816"/>
<circle cx="47.2364" cy="17.4029" r="2.48614" fill="#BBF816"/>
<circle cx="62.1541" cy="17.4029" r="2.48614" fill="#BBF816"/>
<circle cx="77.0704" cy="17.4029" r="2.48614" fill="#BBF816"/>
<circle cx="91.9871" cy="17.4029" r="2.48614" fill="#BBF816"/>
<circle cx="106.904" cy="17.4029" r="2.48614" fill="#BBF816"/>
<circle cx="121.82" cy="17.4029" r="2.48614" fill="#BBF816"/>
<circle cx="136.737" cy="17.4029" r="2.48614" fill="#BBF816"/>
<circle cx="151.655" cy="17.4029" r="2.48614" fill="#BBF816"/>
</g>
<g clip-path="url(#clip3_1_242)">
<circle cx="2.48614" cy="32.3197" r="2.48614" fill="#BBF816"/>
<circle cx="17.4031" cy="32.3197" r="2.48614" fill="#BBF816"/>
<circle cx="32.3191" cy="32.3197" r="2.48614" fill="#BBF816"/>
<circle cx="47.2364" cy="32.3197" r="2.48614" fill="#BBF816"/>
<circle cx="62.1541" cy="32.3197" r="2.48614" fill="#BBF816"/>
<circle cx="77.0704" cy="32.3197" r="2.48614" fill="#BBF816"/>
<circle cx="91.9871" cy="32.3197" r="2.48614" fill="#BBF816"/>
<circle cx="106.904" cy="32.3197" r="2.48614" fill="#BBF816"/>
<circle cx="121.82" cy="32.3197" r="2.48614" fill="#BBF816"/>
<circle cx="136.737" cy="32.3197" r="2.48614" fill="#BBF816"/>
<circle cx="151.655" cy="32.3197" r="2.48614" fill="#BBF816"/>
</g>
<g clip-path="url(#clip4_1_242)">
<circle cx="2.48614" cy="47.2367" r="2.48614" fill="#BBF816"/>
<circle cx="17.4031" cy="47.2366" r="2.48614" fill="#BBF816"/>
<circle cx="32.3191" cy="47.2366" r="2.48614" fill="#BBF816"/>
<circle cx="47.2364" cy="47.2366" r="2.48614" fill="#BBF816"/>
<circle cx="62.1541" cy="47.2366" r="2.48614" fill="#BBF816"/>
<circle cx="77.0704" cy="47.2366" r="2.48614" fill="#BBF816"/>
<circle cx="91.9871" cy="47.2366" r="2.48614" fill="#BBF816"/>
<circle cx="106.904" cy="47.2366" r="2.48614" fill="#BBF816"/>
<circle cx="121.82" cy="47.2366" r="2.48614" fill="#BBF816"/>
<circle cx="136.737" cy="47.2366" r="2.48614" fill="#BBF816"/>
<circle cx="151.655" cy="47.2366" r="2.48614" fill="#BBF816"/>
</g>
<g clip-path="url(#clip5_1_242)">
<circle cx="2.48614" cy="62.1534" r="2.48614" fill="#BBF816"/>
<circle cx="17.4031" cy="62.1534" r="2.48614" fill="#BBF816"/>
<circle cx="32.3191" cy="62.1534" r="2.48614" fill="#BBF816"/>
<circle cx="47.2364" cy="62.1534" r="2.48614" fill="#BBF816"/>
<circle cx="62.1541" cy="62.1534" r="2.48614" fill="#BBF816"/>
<circle cx="77.0704" cy="62.1534" r="2.48614" fill="#BBF816"/>
<circle cx="91.9871" cy="62.1534" r="2.48614" fill="#BBF816"/>
<circle cx="106.904" cy="62.1534" r="2.48614" fill="#BBF816"/>
<circle cx="121.82" cy="62.1534" r="2.48614" fill="#BBF816"/>
<circle cx="136.737" cy="62.1534" r="2.48614" fill="#BBF816"/>
<circle cx="151.655" cy="62.1534" r="2.48614" fill="#BBF816"/>
</g>
<g clip-path="url(#clip6_1_242)">
<circle cx="2.48614" cy="77.0702" r="2.48614" fill="#BBF816"/>
<circle cx="17.4031" cy="77.0702" r="2.48614" fill="#BBF816"/>
<circle cx="32.3191" cy="77.0702" r="2.48614" fill="#BBF816"/>
<circle cx="47.2364" cy="77.0702" r="2.48614" fill="#BBF816"/>
<circle cx="62.1541" cy="77.0702" r="2.48614" fill="#BBF816"/>
<circle cx="77.0704" cy="77.0702" r="2.48614" fill="#BBF816"/>
<circle cx="91.9871" cy="77.0702" r="2.48614" fill="#BBF816"/>
<circle cx="106.904" cy="77.0702" r="2.48614" fill="#BBF816"/>
<circle cx="121.82" cy="77.0702" r="2.48614" fill="#BBF816"/>
<circle cx="136.737" cy="77.0702" r="2.48614" fill="#BBF816"/>
<circle cx="151.655" cy="77.0702" r="2.48614" fill="#BBF816"/>
</g>
<g clip-path="url(#clip7_1_242)">
<circle cx="2.48614" cy="91.9871" r="2.48614" fill="#BBF816"/>
<circle cx="17.4031" cy="91.9871" r="2.48614" fill="#BBF816"/>
<circle cx="32.3191" cy="91.9871" r="2.48614" fill="#BBF816"/>
<circle cx="47.2364" cy="91.9871" r="2.48614" fill="#BBF816"/>
<circle cx="62.1541" cy="91.9871" r="2.48614" fill="#BBF816"/>
<circle cx="77.0704" cy="91.9871" r="2.48614" fill="#BBF816"/>
<circle cx="91.9871" cy="91.9871" r="2.48614" fill="#BBF816"/>
<circle cx="106.904" cy="91.9871" r="2.48614" fill="#BBF816"/>
<circle cx="121.82" cy="91.9871" r="2.48614" fill="#BBF816"/>
<circle cx="136.737" cy="91.9871" r="2.48614" fill="#BBF816"/>
<circle cx="151.655" cy="91.9871" r="2.48614" fill="#BBF816"/>
</g>
<g clip-path="url(#clip8_1_242)">
<circle cx="2.48614" cy="106.904" r="2.48614" fill="#BBF816"/>
<circle cx="17.4031" cy="106.904" r="2.48614" fill="#BBF816"/>
<circle cx="32.3191" cy="106.904" r="2.48614" fill="#BBF816"/>
<circle cx="47.2364" cy="106.904" r="2.48614" fill="#BBF816"/>
<circle cx="62.1541" cy="106.904" r="2.48614" fill="#BBF816"/>
<circle cx="77.0704" cy="106.904" r="2.48614" fill="#BBF816"/>
<circle cx="91.9871" cy="106.904" r="2.48614" fill="#BBF816"/>
<circle cx="106.904" cy="106.904" r="2.48614" fill="#BBF816"/>
<circle cx="121.82" cy="106.904" r="2.48614" fill="#BBF816"/>
<circle cx="136.737" cy="106.904" r="2.48614" fill="#BBF816"/>
<circle cx="151.655" cy="106.904" r="2.48614" fill="#BBF816"/>
</g>
<g clip-path="url(#clip9_1_242)">
<circle cx="2.48614" cy="121.821" r="2.48614" fill="#BBF816"/>
<circle cx="17.4031" cy="121.821" r="2.48614" fill="#BBF816"/>
<circle cx="32.3191" cy="121.821" r="2.48614" fill="#BBF816"/>
<circle cx="47.2364" cy="121.821" r="2.48614" fill="#BBF816"/>
<circle cx="62.1541" cy="121.821" r="2.48614" fill="#BBF816"/>
<circle cx="77.0704" cy="121.821" r="2.48614" fill="#BBF816"/>
<circle cx="91.9871" cy="121.821" r="2.48614" fill="#BBF816"/>
<circle cx="106.904" cy="121.821" r="2.48614" fill="#BBF816"/>
<circle cx="121.82" cy="121.821" r="2.48614" fill="#BBF816"/>
<circle cx="136.737" cy="121.821" r="2.48614" fill="#BBF816"/>
<circle cx="151.655" cy="121.821" r="2.48614" fill="#BBF816"/>
</g>
<g clip-path="url(#clip10_1_242)">
<circle cx="2.48614" cy="136.738" r="2.48614" fill="#BBF816"/>
<circle cx="17.4031" cy="136.738" r="2.48614" fill="#BBF816"/>
<circle cx="32.3191" cy="136.738" r="2.48614" fill="#BBF816"/>
<circle cx="47.2364" cy="136.738" r="2.48614" fill="#BBF816"/>
<circle cx="62.1541" cy="136.738" r="2.48614" fill="#BBF816"/>
<circle cx="77.0704" cy="136.738" r="2.48614" fill="#BBF816"/>
<circle cx="91.9871" cy="136.738" r="2.48614" fill="#BBF816"/>
<circle cx="106.904" cy="136.738" r="2.48614" fill="#BBF816"/>
<circle cx="121.82" cy="136.738" r="2.48614" fill="#BBF816"/>
<circle cx="136.737" cy="136.738" r="2.48614" fill="#BBF816"/>
<circle cx="151.655" cy="136.738" r="2.48614" fill="#BBF816"/>
</g>
<g clip-path="url(#clip11_1_242)">
<circle cx="2.48614" cy="151.654" r="2.48614" fill="#BBF816"/>
<circle cx="17.4031" cy="151.654" r="2.48614" fill="#BBF816"/>
<circle cx="32.3191" cy="151.654" r="2.48614" fill="#BBF816"/>
<circle cx="47.2364" cy="151.654" r="2.48614" fill="#BBF816"/>
<circle cx="62.1541" cy="151.654" r="2.48614" fill="#BBF816"/>
<circle cx="77.0704" cy="151.654" r="2.48614" fill="#BBF816"/>
<circle cx="91.9871" cy="151.654" r="2.48614" fill="#BBF816"/>
<circle cx="106.904" cy="151.654" r="2.48614" fill="#BBF816"/>
<circle cx="121.82" cy="151.654" r="2.48614" fill="#BBF816"/>
<circle cx="136.737" cy="151.654" r="2.48614" fill="#BBF816"/>
<circle cx="151.655" cy="151.654" r="2.48614" fill="#BBF816"/>
</g>
</g>
<defs>
<clipPath id="clip0_1_242">
<rect width="166" height="163.967" fill="white"/>
</clipPath>
<clipPath id="clip1_1_242">
<rect width="165.743" height="14.9168" fill="white"/>
</clipPath>
<clipPath id="clip2_1_242">
<rect width="165.743" height="14.9168" fill="white" transform="translate(0 14.9168)"/>
</clipPath>
<clipPath id="clip3_1_242">
<rect width="165.743" height="14.9168" fill="white" transform="translate(0 29.8336)"/>
</clipPath>
<clipPath id="clip4_1_242">
<rect width="165.743" height="14.9168" fill="white" transform="translate(0 44.7505)"/>
</clipPath>
<clipPath id="clip5_1_242">
<rect width="165.743" height="14.9168" fill="white" transform="translate(0 59.6672)"/>
</clipPath>
<clipPath id="clip6_1_242">
<rect width="165.743" height="14.9168" fill="white" transform="translate(0 74.584)"/>
</clipPath>
<clipPath id="clip7_1_242">
<rect width="165.743" height="14.9168" fill="white" transform="translate(0 89.501)"/>
</clipPath>
<clipPath id="clip8_1_242">
<rect width="165.743" height="14.9168" fill="white" transform="translate(0 104.418)"/>
</clipPath>
<clipPath id="clip9_1_242">
<rect width="165.743" height="14.9168" fill="white" transform="translate(0 119.335)"/>
</clipPath>
<clipPath id="clip10_1_242">
<rect width="165.743" height="14.9168" fill="white" transform="translate(0 134.252)"/>
</clipPath>
<clipPath id="clip11_1_242">
<rect width="165.743" height="14.9168" fill="white" transform="translate(0 149.168)"/>
</clipPath>
</defs>
</svg>
