<svg width="117" height="283" viewBox="0 0 117 283" fill="none" xmlns="http://www.w3.org/2000/svg">
<path d="M99.8657 183.134C108.047 191.316 113.619 201.739 115.876 213.087C118.133 224.435 116.975 236.198 112.547 246.887C108.119 257.576 100.621 266.713 91.0009 273.141C81.3806 279.569 70.0702 283 58.5 283C46.9298 283 35.6194 279.569 25.9991 273.141C16.3789 266.713 8.88077 257.576 4.45304 246.887C0.0253178 236.197 -1.13317 224.435 1.12406 213.087C3.3813 201.739 8.95289 191.316 17.1343 183.134L58.5 224.5L99.8657 183.134Z" fill="url(#paint0_linear_46_2)"/>
<path d="M99.8657 100.134C108.047 108.316 113.619 118.739 115.876 130.087C118.133 141.435 116.975 153.198 112.547 163.887C108.119 174.576 100.621 183.713 91.0009 190.141C81.3806 196.569 70.0702 200 58.5 200C46.9298 200 35.6194 196.569 25.9991 190.141C16.3789 183.713 8.88077 174.576 4.45304 163.887C0.0253178 153.197 -1.13317 141.435 1.12406 130.087C3.3813 118.739 8.95289 108.316 17.1343 100.134L58.5 141.5L99.8657 100.134Z" fill="url(#paint1_linear_46_2)"/>
<path d="M99.8657 17.1342C108.047 25.3156 113.619 35.7393 115.876 47.0872C118.133 58.4351 116.975 70.1975 112.547 80.887C108.119 91.5765 100.621 100.713 91.0009 107.141C81.3806 113.569 70.0702 117 58.5 117C46.9298 117 35.6194 113.569 25.9991 107.141C16.3789 100.713 8.88077 91.5765 4.45304 80.887C0.0253178 70.1975 -1.13317 58.4351 1.12406 47.0872C3.3813 35.7393 8.95289 25.3156 17.1343 17.1342L58.5 58.5L99.8657 17.1342Z" fill="url(#paint2_linear_46_2)"/>
<defs>
<linearGradient id="paint0_linear_46_2" x1="7.44545" y1="225.564" x2="117" y2="225.564" gradientUnits="userSpaceOnUse">
<stop stop-color="#BBF816"/>
<stop offset="1" stop-color="#3A8449"/>
</linearGradient>
<linearGradient id="paint1_linear_46_2" x1="7.44545" y1="142.564" x2="117" y2="142.564" gradientUnits="userSpaceOnUse">
<stop stop-color="#BBF816"/>
<stop offset="1" stop-color="#3A8449"/>
</linearGradient>
<linearGradient id="paint2_linear_46_2" x1="7.44545" y1="59.5636" x2="117" y2="59.5636" gradientUnits="userSpaceOnUse">
<stop stop-color="#BBF816"/>
<stop offset="1" stop-color="#3A8449"/>
</linearGradient>
</defs>
</svg>
