<svg width="310" height="265" viewBox="0 0 310 265" fill="none" xmlns="http://www.w3.org/2000/svg">
<path d="M264.602 0.398434C286.279 22.0756 301.041 49.6939 307.022 79.761C313.002 109.828 309.933 140.993 298.201 169.316C286.47 197.638 266.603 221.846 241.113 238.878C215.624 255.909 185.656 265 155 265C124.344 265 94.3762 255.909 68.8866 238.878C43.397 221.846 23.5302 197.638 11.7987 169.316C0.0670812 140.993 -3.00243 109.828 2.97829 79.761C8.95901 49.6939 23.7213 22.0755 45.3985 0.398411L155 110L264.602 0.398434Z" fill="url(#paint0_linear_1_107)"/>
<defs>
<linearGradient id="paint0_linear_1_107" x1="19.7273" y1="112.818" x2="310" y2="112.818" gradientUnits="userSpaceOnUse">
<stop stop-color="#BBF816"/>
<stop offset="1" stop-color="#3A8449"/>
</linearGradient>
</defs>
</svg>
