<svg width="200" height="200" viewBox="0 0 200 200" fill="none" xmlns="http://www.w3.org/2000/svg">
<path d="M89.6455 23.3671C87.9602 23.5993 86.5874 23.4282 85.5269 22.8538C84.4794 22.2622 83.846 21.3375 83.6266 20.0798L86.4479 19.6909C86.5511 20.106 86.8372 20.4576 87.3062 20.7456C87.7753 21.0336 88.4612 21.1154 89.364 20.991C90.1163 20.8873 90.692 20.6699 91.091 20.3389C91.5051 20.0059 91.68 19.6061 91.6157 19.1397C91.5597 18.7334 91.3421 18.4337 90.9628 18.2407C90.5986 18.0456 90.0051 17.9664 89.1822 18.0031L88.0832 18.0396C86.6932 18.0779 85.586 17.8318 84.7616 17.3015C83.9372 16.7711 83.4524 15.9793 83.3073 14.926C83.1911 14.0834 83.3043 13.3472 83.6468 12.7173C83.9893 12.0875 84.5095 11.5788 85.2074 11.1913C85.9183 10.7866 86.7552 10.518 87.7182 10.3852C89.2229 10.1778 90.4873 10.3409 91.5115 10.8744C92.5356 11.4078 93.1584 12.311 93.3799 13.5837L90.5586 13.9726C90.4704 13.5554 90.21 13.2233 89.7773 12.9763C89.3446 12.7293 88.7596 12.6566 88.0223 12.7582C87.3602 12.8495 86.8663 13.0479 86.5404 13.3534C86.2145 13.659 86.0796 14.0149 86.1356 14.4212C86.1895 14.8124 86.3739 15.0937 86.6889 15.2649C87.0188 15.4341 87.52 15.5107 88.1925 15.4946L89.2914 15.4582C90.7566 15.4096 91.9401 15.6528 92.8418 16.1878C93.7586 16.7207 94.2926 17.5364 94.444 18.6348C94.556 19.4474 94.4278 20.1857 94.0593 20.8498C93.7039 21.4968 93.1502 22.0407 92.3983 22.4817C91.6465 22.9226 90.7289 23.2177 89.6455 23.3671Z" fill="#132B18"/>
<path d="M77.0035 26.2199C75.99 26.5414 75.0445 26.65 74.1669 26.5459C73.3038 26.4372 72.5271 26.1737 71.8367 25.7553C71.1561 25.3178 70.5708 24.7784 70.0805 24.1371C69.6048 23.4913 69.2476 22.7919 69.0088 22.039L68.8779 21.6264C68.6299 20.8446 68.5142 20.0527 68.5308 19.2507C68.5572 18.4296 68.727 17.6587 69.0401 16.9379C69.3632 16.1981 69.8411 15.5446 70.4739 14.9774C71.1021 14.3957 71.9012 13.951 72.8713 13.6434C74.1454 13.2393 75.2991 13.1841 76.3324 13.4778C77.3756 13.7525 78.259 14.277 78.9826 15.0514C79.7017 15.8113 80.2265 16.7124 80.5572 17.7549L80.9016 18.8408L70.4554 22.1539L69.8699 20.3079L78.4267 17.594L77.7821 18.8023C77.5433 18.0495 77.2304 17.4396 76.8433 16.9728C76.4562 16.506 75.9924 16.199 75.4517 16.0517C74.9255 15.8999 74.3294 15.9297 73.6634 16.1409C72.9974 16.3521 72.4809 16.6832 72.1141 17.1342C71.7472 17.5852 71.5325 18.1393 71.4701 18.7965C71.4175 19.4346 71.5175 20.1518 71.7701 20.9482C72.0043 21.6865 72.329 22.3086 72.7443 22.8142C73.1551 23.3054 73.6522 23.6418 74.2356 23.8232C74.8144 23.9902 75.473 23.9566 76.2114 23.7224C76.9498 23.4882 77.5047 23.1529 77.8762 22.7164C78.243 22.2654 78.4228 21.802 78.4153 21.3264L81.1951 20.4447C81.2786 21.3106 81.1706 22.1256 80.8712 22.8899C80.5718 23.6541 80.0912 24.3244 79.4295 24.9008C78.7822 25.4725 77.9735 25.9123 77.0035 26.2199Z" fill="#132B18"/>
<path d="M65.7274 30.2442L58.6401 15.1977L61.5051 13.8482L68.5925 28.8947L65.7274 30.2442ZM58.2482 18.0015L57.2385 15.8579L61.5051 13.8482L62.5148 15.9918L58.2482 18.0015Z" fill="#132B18"/>
<path d="M58.4825 34.8238C57.576 35.4079 56.692 35.7607 55.8306 35.8821C54.982 35.9952 54.1697 35.9404 53.3937 35.7176C52.6305 35.4866 51.9347 35.1219 51.3063 34.6233C50.6779 34.1248 50.1498 33.5435 49.722 32.8796L49.4875 32.5157C49.035 31.8135 48.7116 31.0732 48.5173 30.2949C48.3275 29.4957 48.2957 28.7031 48.4217 27.9172C48.5395 27.1185 48.8294 26.3626 49.2913 25.6493C49.7578 24.9151 50.4252 24.2682 51.2934 23.7088C52.1999 23.1246 53.1259 22.781 54.0713 22.6778C55.0084 22.5618 55.8892 22.6809 56.7137 23.035C57.5509 23.3809 58.2625 23.9524 58.8483 24.7494L56.2628 26.4154C55.8534 25.9203 55.3356 25.6215 54.7094 25.519C54.096 25.4083 53.451 25.571 52.7743 26.007C52.1869 26.3855 51.7859 26.8427 51.5711 27.3786C51.369 27.9063 51.3327 28.4809 51.462 29.1022C51.5831 29.7108 51.8493 30.3343 52.2607 30.9727C52.6556 31.5856 53.1029 32.0834 53.6025 32.4662C54.1148 32.8407 54.6531 33.045 55.2171 33.0791C55.7939 33.105 56.3887 32.9205 57.0016 32.5256C57.4613 32.2294 57.8036 31.8913 58.0286 31.5115C58.2536 31.1316 58.3673 30.7331 58.3696 30.316C58.3846 29.8907 58.2984 29.4765 58.1109 29.0733L60.6964 27.4073C61.1884 28.2829 61.4166 29.1839 61.381 30.1102C61.35 31.0156 61.0858 31.8815 60.5884 32.7079C60.1038 33.5262 59.4018 34.2315 58.4825 34.8238Z" fill="#132B18"/>
<path d="M48.6375 41.6793L40.5936 32.2798L42.9997 30.2207L51.0436 39.6202L48.6375 41.6793ZM40.8186 35.206L39.278 33.4057L42.9997 30.2207L44.5404 32.021L40.8186 35.206ZM40.5135 30.3992C40.0404 30.8041 39.5847 30.9841 39.1465 30.9393C38.71 30.873 38.3337 30.6553 38.0177 30.286C37.6819 29.8936 37.5199 29.4824 37.5318 29.0525C37.5552 28.6126 37.8035 28.1902 38.2766 27.7853C38.7498 27.3804 39.1997 27.2053 39.6263 27.26C40.053 27.3147 40.4342 27.5382 40.77 27.9306C41.086 28.2999 41.243 28.7053 41.241 29.1468C41.2292 29.5768 40.9867 29.9942 40.5135 30.3992Z" fill="#132B18"/>
<path d="M45.0835 45.2015C44.3035 46.0317 43.5535 46.6192 42.8335 46.964C42.1129 47.2874 41.3732 47.3427 40.6144 47.1299C39.8445 46.9068 39.0223 46.3844 38.1478 45.5627L29.9939 37.8706L32.022 35.712L40.3253 43.5445C40.7681 43.9606 41.2205 44.1667 41.6824 44.1631C42.1437 44.138 42.5823 43.904 42.9983 43.4612L44.3244 42.0498L46.3004 43.9063L45.0835 45.2015ZM32.8708 43.2934L31.1771 41.7021L37.1678 35.3259L38.8615 36.9172L32.8708 43.2934Z" fill="#132B18"/>
<path d="M35.5427 56.5102L25.549 49.2177L27.0263 47.1932L31.2594 50.2821L31.2191 50.3373C29.7835 49.2897 28.9215 48.1906 28.633 47.0399C28.3445 45.8892 28.6345 44.7188 29.5029 43.5286L29.7715 43.1606L31.9985 44.7856L31.4882 45.485C30.8614 46.3438 30.6066 47.1827 30.7237 48.0014C30.8374 48.7989 31.3299 49.5155 32.201 50.1512L37.4095 53.9519L35.5427 56.5102Z" fill="#132B18"/>
<path d="M32.5165 61.3812L29.2704 59.6729L29.0264 60.1366L25.4173 58.2374C24.7856 57.9049 24.2338 57.8119 23.7619 57.9584C23.2901 58.1048 22.8844 58.5007 22.5449 59.1459C22.368 59.4819 22.1625 59.8887 21.9284 60.3662C21.6943 60.8437 21.4633 61.3315 21.2355 61.8295C21.0014 62.3071 20.7987 62.7411 20.6276 63.1316L18.2484 61.8796C18.3842 61.5563 18.5413 61.1926 18.7195 60.7887C18.8978 60.3847 19.093 59.9812 19.3052 59.5779C19.511 59.1541 19.7095 58.7608 19.9004 58.3979C20.4946 57.2688 21.1341 56.4124 21.8189 55.8288C22.5107 55.2317 23.2715 54.9112 24.1013 54.8673C24.9382 54.8099 25.8674 55.05 26.889 55.5876L33.6837 59.1633L32.5165 61.3812ZM30.942 65.0581C30.5246 65.8512 30.0157 66.4758 29.4151 66.9322C28.8216 67.375 28.1743 67.6266 27.4732 67.6867C26.7792 67.7335 26.0626 67.5623 25.3233 67.1732C24.5168 66.7488 23.9608 66.2073 23.6551 65.5487C23.3566 64.8767 23.267 64.1173 23.3865 63.2705C23.5131 62.4102 23.8311 61.4962 24.3404 60.5284L25.6773 57.988L27.3507 58.8687L25.9926 61.4494C25.6531 62.0946 25.5527 62.6768 25.6913 63.1961C25.8237 63.6948 26.1385 64.075 26.6358 64.3367C27.1332 64.5985 27.6248 64.6427 28.1108 64.4693C28.6039 64.2825 29.0202 63.8665 29.3597 63.2213C29.5648 62.8315 29.6851 62.44 29.7204 62.0466C29.7494 61.6328 29.6525 61.2299 29.4296 60.838C29.2004 60.4256 28.7971 60.0503 28.2199 59.7122L29.3669 59.4405C30.0977 59.9109 30.6439 60.4386 31.0054 61.0236C31.374 61.5952 31.558 62.2241 31.5573 62.9103C31.5503 63.576 31.3452 64.2919 30.942 65.0581Z" fill="#132B18"/>
<path d="M25.175 80.53C24.7505 82.1773 24.0712 83.3826 23.1373 84.1458C22.1925 84.8904 21.0966 85.1256 19.8497 84.8513L20.5605 82.0935C20.9837 82.1555 21.4176 82.0242 21.862 81.6995C22.3064 81.3749 22.6424 80.7713 22.8698 79.8888C23.0594 79.1534 23.0767 78.5383 22.9219 78.0435C22.7709 77.534 22.4674 77.2205 22.0114 77.103C21.6143 77.0006 21.2545 77.0883 20.932 77.3659C20.6132 77.6288 20.3147 78.148 20.0365 78.9233L19.6532 79.9538C19.1612 81.2544 18.5134 82.1854 17.7099 82.7469C16.9064 83.3084 15.9898 83.4565 14.9602 83.1911C14.1366 82.9789 13.4983 82.5948 13.0456 82.0389C12.5928 81.483 12.3195 80.8087 12.2258 80.0159C12.1212 79.2047 12.1902 78.3284 12.4328 77.3871C12.8119 75.9162 13.4426 74.8082 14.3248 74.0631C15.207 73.318 16.2789 73.0845 17.5405 73.3626L16.8297 76.1204C16.4102 76.0437 16.0042 76.1586 15.6114 76.4652C15.2187 76.7718 14.9295 77.2855 14.7437 78.0062C14.5769 78.6534 14.5731 79.1857 14.7321 79.6031C14.8912 80.0206 15.1693 80.2805 15.5664 80.3828C15.9488 80.4814 16.279 80.4175 16.5569 80.1911C16.8387 79.95 17.0997 79.5153 17.3401 78.8871L17.7233 77.8565C18.2343 76.4824 18.9084 75.4797 19.7456 74.8485C20.5865 74.2025 21.5439 74.0179 22.6176 74.2947C23.4119 74.4994 24.0463 74.8982 24.5209 75.491C24.9846 76.0654 25.2778 76.7841 25.4005 77.647C25.5231 78.51 25.448 79.471 25.175 80.53Z" fill="#132B18"/>
<path d="M27.2864 95.7731C27.2433 96.3639 27.1765 96.9682 27.0858 97.586C26.9962 98.1887 26.8942 98.7524 26.7798 99.277L24.1439 99.085C24.2442 98.5441 24.3397 97.9647 24.4304 97.3469C24.5363 96.7302 24.6091 96.1492 24.6488 95.6038C24.7227 94.5889 24.6611 93.762 24.464 93.1232C24.2679 92.4693 23.9153 91.9791 23.406 91.6527C22.913 91.3122 22.2651 91.1127 21.4622 91.0542L19.0308 90.8771L17.5352 90.0828C18.6681 90.211 19.6205 90.5165 20.3925 90.9991C21.1494 91.4807 21.7134 92.1005 22.0846 92.8585C22.4407 93.6155 22.5839 94.4711 22.5144 95.4255C22.4526 96.2739 22.2373 97.0349 21.8684 97.7086C21.5006 98.3671 21.0183 98.9259 20.4213 99.385C19.8255 99.8289 19.1389 100.16 18.3616 100.377C17.5843 100.595 16.7639 100.672 15.9004 100.609L15.4232 100.574C14.5597 100.511 13.7668 100.317 13.0443 99.9898C12.3079 99.6468 11.6781 99.1974 11.1551 98.6415C10.6321 98.0856 10.2451 97.4406 9.99396 96.7065C9.74284 95.9725 9.64873 95.1737 9.71163 94.3102C9.78556 93.2952 10.0692 92.4326 10.5626 91.7223C11.0571 90.9968 11.7364 90.4524 12.6005 90.0889C13.4646 89.7254 14.5042 89.5651 15.7195 89.6079L15.7706 90.1599L10.4306 89.7709L10.6127 87.2713L21.4972 88.0642C22.997 88.1734 24.1901 88.5192 25.0767 89.1016C25.9633 89.684 26.5795 90.5284 26.9253 91.6349C27.2874 92.7273 27.4077 94.1067 27.2864 95.7731ZM19.8765 94.3196C19.9207 93.7137 19.8246 93.1508 19.5883 92.631C19.3521 92.1112 18.9874 91.6811 18.4945 91.3406C18.0015 91.0001 17.3914 90.8034 16.6642 90.7504L15.8689 90.6925C15.1721 90.6417 14.5697 90.7577 14.0617 91.0406C13.5549 91.3082 13.1621 91.6832 12.8833 92.1654C12.5893 92.6466 12.4208 93.1826 12.3778 93.7734C12.3292 94.44 12.4453 95.0424 12.7259 95.5806C12.9924 96.1026 13.3955 96.5279 13.935 96.8566C14.4746 97.1852 15.1307 97.3777 15.9033 97.434C16.6607 97.4891 17.3302 97.3932 17.9117 97.1462C18.4931 96.8992 18.9536 96.5368 19.293 96.0589C19.6335 95.5659 19.828 94.9862 19.8765 94.3196Z" fill="#132B18"/>
<path d="M23.3504 109.802C23.4896 110.887 23.4391 111.866 23.1989 112.739C22.9587 113.612 22.5816 114.373 22.0675 115.021C21.5384 115.67 20.9165 116.194 20.2019 116.592C19.4853 116.975 18.7203 117.219 17.9067 117.323L17.4322 117.384C16.5885 117.492 15.7707 117.444 14.9787 117.24C14.1698 117.022 13.4348 116.664 12.7738 116.167C12.0958 115.657 11.5379 115.009 11.1001 114.223C10.6472 113.439 10.3541 112.527 10.2207 111.487C10.0873 110.448 10.1407 109.491 10.3809 108.618C10.606 107.747 10.9831 106.987 11.5123 106.337C12.0245 105.674 12.6454 105.143 13.3751 104.743C14.0897 104.345 14.8688 104.092 15.7125 103.983L16.1871 103.922C17.0006 103.818 17.8033 103.868 18.5953 104.073C19.3853 104.262 20.1183 104.605 20.7944 105.1C21.4555 105.597 22.0124 106.238 22.4652 107.022C22.9181 107.806 23.2131 108.733 23.3504 109.802ZM20.6612 110.148C20.5626 109.379 20.3137 108.753 19.9146 108.268C19.5004 107.785 18.9897 107.445 18.3824 107.247C17.7601 107.051 17.0798 107.001 16.3416 107.095C15.5883 107.192 14.9438 107.42 14.408 107.78C13.8552 108.127 13.4479 108.592 13.1861 109.177C12.9073 109.749 12.8152 110.404 12.9099 111.142C13.0047 111.88 13.2601 112.498 13.6762 112.996C14.0753 113.481 14.587 113.829 15.2113 114.04C15.8205 114.253 16.5018 114.311 17.2551 114.214C17.9933 114.119 18.6387 113.899 19.1915 113.552C19.7273 113.192 20.1346 112.727 20.4134 112.155C20.6772 111.585 20.7598 110.916 20.6612 110.148Z" fill="#132B18"/>
<path d="M25.4627 122.011L9.43424 126.451L8.58882 123.399L24.6173 118.959L25.4627 122.011ZM12.1313 127.311L9.84782 127.944L8.58882 123.399L10.8723 122.766L12.1313 127.311Z" fill="#132B18"/>
<path d="M28.769 130.051C29.1791 130.982 29.3456 131.888 29.2685 132.768C29.1776 133.655 28.8385 134.468 28.2515 135.208C27.6644 135.948 26.8379 136.577 25.772 137.096L25.5792 136.658L30.3125 134.574L31.3225 136.868L16.1006 143.57L14.8244 140.672L22.4353 137.321L23.9636 137.569C22.7714 138.027 21.6973 138.226 20.7414 138.166C19.7793 138.092 18.9506 137.793 18.2553 137.269C17.56 136.745 17.0196 136.046 16.634 135.17C16.2912 134.391 16.125 133.618 16.1354 132.85C16.1458 132.082 16.3141 131.353 16.6404 130.661C16.9527 129.976 17.4044 129.362 17.9954 128.82C18.5803 128.264 19.2828 127.805 20.103 127.444L20.5409 127.251C21.3611 126.89 22.1807 126.678 22.9999 126.616C23.819 126.554 24.6037 126.64 25.354 126.874C26.0903 127.114 26.7583 127.501 27.3579 128.033C27.9375 128.558 28.4079 129.231 28.769 130.051ZM26.614 131.771C26.3385 131.146 25.9469 130.671 25.4391 130.347C24.9113 130.015 24.3181 129.836 23.6597 129.811C23.0012 129.786 22.3175 129.929 21.6086 130.241C20.8857 130.559 20.3183 130.967 19.9063 131.464C19.4944 131.96 19.2465 132.509 19.1627 133.11C19.0727 133.698 19.1655 134.304 19.4409 134.93C19.6919 135.5 20.0496 135.973 20.514 136.349C20.9723 136.712 21.5121 136.939 22.1333 137.03C22.7484 137.108 23.3965 136.997 24.0777 136.697L24.9117 136.33C25.5651 136.042 26.0538 135.644 26.3779 135.137C26.702 134.629 26.882 134.076 26.918 133.48C26.954 132.883 26.8527 132.314 26.614 131.771Z" fill="#132B18"/>
<path d="M38.9977 147.523C40.0459 148.863 40.5884 150.135 40.6252 151.341C40.6406 152.544 40.1599 153.556 39.1831 154.378L37.4282 152.135C37.7351 151.837 37.8951 151.413 37.9082 150.863C37.9213 150.313 37.647 149.679 37.0855 148.961C36.6175 148.363 36.1401 147.975 35.6534 147.796C35.1573 147.606 34.7238 147.656 34.3529 147.946C34.0299 148.198 33.8804 148.537 33.9042 148.962C33.9187 149.375 34.1488 149.928 34.5943 150.621L35.1785 151.552C35.9106 152.734 36.2547 153.815 36.2109 154.795C36.167 155.774 35.7264 156.591 34.889 157.246C34.2191 157.77 33.5258 158.043 32.8091 158.063C32.0925 158.084 31.3912 157.89 30.7053 157.482C29.9981 157.071 29.345 156.483 28.746 155.717C27.81 154.521 27.3151 153.346 27.2612 152.192C27.2073 151.039 27.6747 150.046 28.6635 149.215L30.4184 151.458C30.1021 151.744 29.946 152.136 29.9501 152.634C29.9542 153.132 30.1855 153.675 30.6442 154.261C31.056 154.787 31.4759 155.114 31.9039 155.242C32.3319 155.37 32.7074 155.308 33.0304 155.055C33.3414 154.812 33.4917 154.511 33.4814 154.153C33.4617 153.783 33.2758 153.311 32.9238 152.738L32.3397 151.806C31.5608 150.564 31.1759 149.419 31.1849 148.37C31.1845 147.31 31.621 146.438 32.4943 145.755C33.1403 145.25 33.8429 144.989 34.6022 144.974C35.3402 144.956 36.0888 145.161 36.848 145.589C37.6073 146.017 38.3238 146.662 38.9977 147.523Z" fill="#132B18"/>
<path d="M47.8203 157.015C48.6078 157.729 49.1772 158.492 49.5285 159.303C49.8686 160.103 50.0314 160.907 50.017 161.714C49.981 162.523 49.8092 163.3 49.5014 164.046C49.1824 164.782 48.7576 165.443 48.2269 166.028L47.9361 166.348C47.385 166.956 46.7587 167.454 46.0572 167.843C45.3342 168.233 44.5825 168.474 43.802 168.566C43 168.658 42.1948 168.574 41.3863 168.312C40.5676 168.062 39.7814 167.595 39.0277 166.911C38.0377 166.013 37.4098 165.043 37.1441 164.003C36.8569 162.963 36.866 161.935 37.1714 160.921C37.4666 159.917 37.9816 159.01 38.7164 158.2L39.4818 157.356L47.5987 164.719L46.2975 166.154L39.6488 160.122L41.0173 160.072C40.4866 160.657 40.1169 161.234 39.908 161.803C39.6992 162.373 39.6671 162.928 39.8117 163.469C39.9451 164.001 40.2706 164.501 40.7881 164.97C41.3056 165.44 41.8515 165.72 42.4258 165.81C43.0001 165.9 43.587 165.807 44.1865 165.531C44.7645 165.255 45.3341 164.808 45.8954 164.189C46.4159 163.616 46.7902 163.022 47.0184 162.409C47.2364 161.807 47.2772 161.208 47.1406 160.612C46.9939 160.028 46.6336 159.476 46.0599 158.955C45.4861 158.435 44.9172 158.124 44.3531 158.022C43.7788 157.932 43.2879 158.01 42.8805 158.255L40.7205 156.296C41.427 155.788 42.1858 155.472 42.997 155.346C43.8081 155.221 44.6291 155.299 45.4601 155.581C46.2798 155.853 47.0665 156.331 47.8203 157.015Z" fill="#132B18"/>
<path d="M56.9692 164.738L47.5278 178.431L44.9206 176.633L54.362 162.94L56.9692 164.738ZM50.1484 177.36L48.8033 179.31L44.9206 176.633L46.2657 174.682L50.1484 177.36Z" fill="#132B18"/>
<path d="M64.5709 168.697C65.5316 169.187 66.2811 169.773 66.8191 170.457C67.3437 171.133 67.7048 171.863 67.9025 172.646C68.0866 173.422 68.1212 174.206 68.0063 175C67.8914 175.794 67.6546 176.543 67.2959 177.247L67.0992 177.632C66.7198 178.377 66.2426 179.028 65.6676 179.588C65.0722 180.154 64.4031 180.58 63.6605 180.866C62.9109 181.166 62.1117 181.295 61.2629 181.255C60.3936 181.221 59.4989 180.969 58.5788 180.5C57.618 180.01 56.8553 179.383 56.2907 178.618C55.7192 177.866 55.3791 177.045 55.2706 176.154C55.1486 175.256 55.2847 174.354 55.679 173.447L58.4192 174.844C58.1972 175.447 58.1993 176.044 58.4256 176.637C58.6384 177.223 59.1034 177.699 59.8206 178.064C60.443 178.382 61.0399 178.499 61.6112 178.415C62.1689 178.324 62.6838 178.066 63.1558 177.642C63.621 177.231 64.026 176.688 64.371 176.011C64.7021 175.362 64.9075 174.725 64.9871 174.1C65.0532 173.469 64.9591 172.901 64.7049 172.397C64.4372 171.885 63.9786 171.464 63.3291 171.132C62.8419 170.884 62.3776 170.758 61.936 170.755C61.4945 170.751 61.0929 170.853 60.7313 171.061C60.3561 171.262 60.0414 171.545 59.7872 171.91L57.047 170.513C57.5564 169.647 58.2205 168.997 59.039 168.562C59.8372 168.133 60.7185 167.926 61.683 167.94C62.6339 167.948 63.5965 168.2 64.5709 168.697Z" fill="#132B18"/>
<path d="M75.4479 173.76L71.3685 185.439L68.3787 184.395L72.4581 172.715L75.4479 173.76ZM73.7846 183.773L73.0032 186.01L68.3787 184.395L69.16 182.158L73.7846 183.773ZM69.7832 186.454C70.3711 186.66 70.7559 186.963 70.9375 187.364C71.0998 187.775 71.1008 188.21 70.9405 188.668C70.7702 189.156 70.4963 189.503 70.1187 189.709C69.7267 189.91 69.2367 189.907 68.6488 189.702C68.0609 189.497 67.6833 189.196 67.516 188.8C67.3487 188.403 67.3502 187.961 67.5205 187.474C67.6808 187.015 67.9522 186.675 68.3349 186.455C68.7125 186.249 69.1953 186.249 69.7832 186.454Z" fill="#132B18"/>
<path d="M80.2788 175.06C81.3887 175.317 82.2736 175.67 82.9337 176.119C83.5756 176.579 83.9954 177.19 84.1931 177.953C84.3874 178.731 84.3493 179.704 84.0789 180.873L81.5306 191.79L78.6449 191.122L81.2394 180.006C81.3763 179.414 81.3271 178.92 81.0916 178.522C80.8379 178.136 80.4151 177.875 79.8232 177.738L77.9364 177.301L78.5474 174.66L80.2788 175.06ZM84.7711 186.576L84.2474 188.84L75.7235 186.868L76.2472 184.604L84.7711 186.576Z" fill="#132B18"/>
<path d="M94.8519 177.619L93.5742 189.925L91.0814 189.666L91.6226 184.454L91.6906 184.461C91.5071 186.229 90.9905 187.526 90.141 188.354C89.2915 189.182 88.134 189.52 86.6685 189.368L86.2153 189.321L86.5 186.579L87.3612 186.668C88.4187 186.778 89.2719 186.577 89.9207 186.064C90.5529 185.564 90.9246 184.778 91.036 183.706L91.7019 177.292L94.8519 177.619Z" fill="#132B18"/>
<path d="M100.584 177.785L100.739 181.45L101.263 181.428L101.436 185.502C101.467 186.216 101.664 186.739 102.028 187.074C102.391 187.408 102.938 187.559 103.666 187.528C104.045 187.512 104.5 187.485 105.031 187.448C105.561 187.41 106.099 187.364 106.644 187.31C107.175 187.273 107.652 187.23 108.075 187.181L108.19 189.867C107.842 189.912 107.448 189.96 107.01 190.009C106.571 190.058 106.124 190.092 105.669 190.111C105.199 190.146 104.759 190.173 104.349 190.19C103.075 190.244 102.013 190.122 101.164 189.824C100.3 189.526 99.6403 189.03 99.185 188.335C98.7146 187.64 98.4549 186.716 98.4058 185.563L98.0796 177.892L100.584 177.785ZM104.554 177.297C105.449 177.259 106.245 177.385 106.941 177.674C107.623 177.965 108.165 178.398 108.57 178.973C108.959 179.55 109.172 180.255 109.207 181.09C109.246 182 109.058 182.753 108.642 183.349C108.211 183.945 107.6 184.404 106.808 184.727C106.001 185.05 105.051 185.235 103.958 185.281L101.09 185.403L101.01 183.514L103.923 183.39C104.652 183.359 105.205 183.153 105.585 182.772C105.949 182.407 106.119 181.943 106.096 181.382C106.072 180.82 105.863 180.373 105.468 180.04C105.059 179.708 104.49 179.557 103.762 179.588C103.322 179.607 102.923 179.7 102.565 179.867C102.193 180.05 101.893 180.337 101.666 180.727C101.425 181.132 101.304 181.669 101.302 182.338L100.49 181.483C100.529 180.615 100.711 179.878 101.034 179.271C101.343 178.665 101.794 178.19 102.388 177.845C102.967 177.517 103.689 177.334 104.554 177.297Z" fill="#132B18"/>
<path d="M120.827 174.501C122.465 174.04 123.848 174.021 124.977 174.444C126.096 174.887 126.85 175.716 127.24 176.931L124.499 177.704C124.34 177.307 124.008 176.998 123.504 176.777C123 176.556 122.309 176.569 121.432 176.816C120.701 177.022 120.161 177.317 119.811 177.699C119.447 178.086 119.328 178.506 119.456 178.959C119.567 179.354 119.824 179.621 120.226 179.76C120.614 179.903 121.212 179.9 122.022 179.751L123.106 179.564C124.478 179.335 125.608 179.427 126.497 179.839C127.387 180.251 127.976 180.969 128.264 181.992C128.495 182.811 128.484 183.556 128.231 184.227C127.978 184.898 127.533 185.473 126.895 185.953C126.246 186.451 125.454 186.832 124.518 187.096C123.056 187.508 121.782 187.52 120.694 187.132C119.606 186.744 118.865 185.935 118.471 184.705L121.212 183.932C121.357 184.333 121.661 184.627 122.123 184.812C122.586 184.997 123.175 184.989 123.891 184.787C124.535 184.606 124.997 184.341 125.278 183.994C125.558 183.646 125.643 183.275 125.532 182.881C125.425 182.501 125.204 182.247 124.868 182.121C124.518 181.999 124.011 181.992 123.347 182.1L122.264 182.287C120.819 182.536 119.613 182.458 118.647 182.051C117.665 181.649 117.024 180.915 116.724 179.848C116.501 179.058 116.527 178.309 116.801 177.601C117.064 176.911 117.538 176.296 118.222 175.756C118.906 175.216 119.775 174.798 120.827 174.501Z" fill="#132B18"/>
<path d="M132.941 165.011C133.473 164.751 134.029 164.505 134.609 164.273C135.175 164.047 135.713 163.852 136.224 163.687L137.384 166.062C136.866 166.247 136.317 166.456 135.737 166.688C135.151 166.907 134.612 167.136 134.121 167.376C133.206 167.823 132.523 168.292 132.07 168.784C131.603 169.282 131.357 169.833 131.331 170.437C131.284 171.035 131.438 171.695 131.791 172.419L132.86 174.609L132.926 176.301C132.467 175.258 132.252 174.281 132.281 173.371C132.317 172.474 132.569 171.675 133.037 170.973C133.513 170.285 134.18 169.731 135.04 169.311C135.804 168.938 136.57 168.741 137.338 168.721C138.092 168.708 138.818 168.844 139.515 169.129C140.198 169.421 140.829 169.848 141.408 170.41C141.987 170.973 142.467 171.643 142.846 172.421L143.056 172.851C143.436 173.629 143.667 174.412 143.747 175.201C143.821 176.01 143.75 176.78 143.532 177.512C143.315 178.244 142.952 178.903 142.444 179.489C141.935 180.075 141.292 180.558 140.514 180.938C139.6 181.384 138.711 181.573 137.849 181.504C136.974 181.441 136.161 181.128 135.413 180.564C134.664 180 134.003 179.182 133.429 178.11L133.88 177.788L136.229 182.599L133.977 183.699L129.189 173.892C128.529 172.541 128.228 171.335 128.285 170.276C128.343 169.217 128.763 168.26 129.545 167.404C130.308 166.542 131.439 165.744 132.941 165.011ZM135.411 172.147C134.865 172.414 134.426 172.78 134.096 173.245C133.766 173.711 133.577 174.242 133.531 174.84C133.484 175.437 133.621 176.063 133.941 176.719L134.291 177.435C134.597 178.063 135.001 178.525 135.5 178.822C135.987 179.126 136.508 179.277 137.065 179.275C137.629 179.287 138.177 179.163 138.709 178.903C139.31 178.61 139.772 178.207 140.096 177.694C140.414 177.201 140.579 176.638 140.591 176.007C140.604 175.375 140.44 174.711 140.101 174.015C139.767 173.333 139.348 172.802 138.842 172.424C138.336 172.046 137.791 171.83 137.207 171.777C136.61 171.73 136.011 171.854 135.411 172.147Z" fill="#132B18"/>
<path d="M147.047 161.358C147.914 160.692 148.786 160.244 149.661 160.012C150.537 159.781 151.384 159.724 152.202 159.843C153.03 159.973 153.796 160.247 154.499 160.665C155.19 161.092 155.786 161.63 156.285 162.281L156.576 162.661C157.094 163.336 157.464 164.067 157.685 164.854C157.904 165.663 157.964 166.478 157.867 167.299C157.767 168.142 157.487 168.95 157.028 169.724C156.578 170.509 155.937 171.221 155.106 171.859C154.274 172.497 153.421 172.932 152.546 173.164C151.679 173.407 150.832 173.464 150.005 173.333C149.174 173.224 148.402 172.954 147.69 172.525C146.986 172.107 146.376 171.561 145.858 170.886L145.567 170.507C145.067 169.856 144.707 169.137 144.486 168.349C144.252 167.571 144.18 166.765 144.268 165.932C144.365 165.111 144.638 164.307 145.089 163.521C145.539 162.736 146.191 162.015 147.047 161.358ZM148.698 163.509C148.083 163.98 147.667 164.511 147.448 165.099C147.239 165.7 147.202 166.313 147.336 166.937C147.48 167.574 147.779 168.187 148.232 168.777C148.694 169.38 149.215 169.822 149.796 170.104C150.373 170.408 150.981 170.526 151.618 170.458C152.252 170.411 152.865 170.162 153.455 169.709C154.046 169.255 154.451 168.724 154.673 168.114C154.891 167.525 154.934 166.908 154.802 166.262C154.68 165.629 154.388 165.011 153.925 164.408C153.472 163.818 152.957 163.371 152.379 163.067C151.799 162.785 151.192 162.667 150.557 162.714C149.932 162.772 149.312 163.037 148.698 163.509Z" fill="#132B18"/>
<path d="M156.536 153.393L168.434 165.015L166.222 167.281L154.323 155.659L156.536 153.393ZM167.822 162.251L169.517 163.907L166.222 167.281L164.526 165.625L167.822 162.251Z" fill="#132B18"/>
<path d="M161.823 146.492C162.422 145.669 163.121 145.069 163.921 144.693C164.733 144.326 165.606 144.21 166.541 144.346C167.475 144.481 168.435 144.879 169.42 145.539L169.138 145.926L164.956 142.883L166.431 140.857L179.879 150.643L178.015 153.204L171.292 148.311L170.738 146.865C171.733 147.665 172.446 148.493 172.874 149.35C173.294 150.219 173.452 151.085 173.349 151.949C173.246 152.814 172.913 153.633 172.35 154.407C171.849 155.094 171.265 155.627 170.596 156.004C169.927 156.381 169.211 156.603 168.45 156.668C167.7 156.743 166.943 156.661 166.177 156.423C165.402 156.197 164.652 155.821 163.927 155.293L163.54 155.012C162.816 154.485 162.221 153.882 161.755 153.206C161.29 152.529 160.97 151.807 160.795 151.041C160.632 150.284 160.63 149.512 160.789 148.726C160.951 147.961 161.295 147.216 161.823 146.492ZM164.394 147.489C163.992 148.042 163.778 148.619 163.753 149.221C163.732 149.844 163.876 150.447 164.185 151.029C164.494 151.611 164.962 152.129 165.588 152.585C166.227 153.05 166.864 153.336 167.501 153.442C168.137 153.548 168.737 153.486 169.298 153.256C169.851 153.039 170.329 152.654 170.731 152.101C171.097 151.598 171.326 151.05 171.418 150.46C171.501 149.881 171.426 149.301 171.193 148.718C170.95 148.147 170.528 147.642 169.927 147.205L169.19 146.668C168.613 146.248 168.023 146.026 167.421 146.001C166.819 145.976 166.251 146.098 165.717 146.367C165.184 146.636 164.742 147.01 164.394 147.489Z" fill="#132B18"/>
<path d="M171.781 128.865C172.412 127.285 173.24 126.176 174.263 125.538C175.295 124.92 176.412 124.826 177.614 125.257L176.558 127.902C176.146 127.787 175.699 127.862 175.216 128.127C174.734 128.392 174.324 128.948 173.986 129.795C173.705 130.5 173.609 131.108 173.699 131.618C173.784 132.143 174.045 132.492 174.483 132.667C174.864 132.819 175.232 132.778 175.587 132.544C175.937 132.323 176.299 131.847 176.673 131.113L177.185 130.14C177.839 128.912 178.6 128.072 179.468 127.617C180.337 127.162 181.265 127.132 182.252 127.527C183.042 127.842 183.626 128.304 184.004 128.913C184.383 129.522 184.568 130.226 184.56 131.024C184.56 131.842 184.38 132.703 184.02 133.605C183.456 135.016 182.69 136.035 181.72 136.661C180.75 137.288 179.657 137.383 178.441 136.946L179.497 134.302C179.903 134.431 180.321 134.369 180.749 134.115C181.178 133.861 181.53 133.388 181.806 132.697C182.054 132.076 182.126 131.549 182.021 131.114C181.917 130.68 181.674 130.387 181.293 130.235C180.926 130.088 180.591 130.11 180.286 130.299C179.976 130.502 179.662 130.9 179.343 131.492L178.832 132.466C178.15 133.764 177.354 134.672 176.443 135.192C175.527 135.725 174.554 135.786 173.524 135.375C172.762 135.071 172.184 134.595 171.788 133.946C171.402 133.317 171.202 132.567 171.191 131.696C171.179 130.824 171.376 129.881 171.781 128.865Z" fill="#132B18"/>
<path d="M175.55 116.465C175.771 115.426 176.144 114.55 176.668 113.838C177.189 113.142 177.802 112.597 178.507 112.203C179.224 111.828 179.982 111.586 180.782 111.476C181.578 111.382 182.363 111.417 183.135 111.582L183.559 111.672C184.361 111.843 185.107 112.133 185.796 112.544C186.496 112.973 187.083 113.501 187.554 114.13C188.038 114.776 188.37 115.515 188.55 116.345C188.745 117.179 188.737 118.093 188.525 119.089C188.247 120.396 187.725 121.426 186.958 122.179C186.204 122.951 185.312 123.459 184.281 123.706C183.265 123.955 182.222 123.966 181.152 123.738L180.038 123.501L182.321 112.782L184.215 113.186L182.345 121.966L181.613 120.808C182.386 120.973 183.071 121.002 183.668 120.896C184.265 120.791 184.761 120.539 185.156 120.142C185.548 119.759 185.817 119.226 185.962 118.543C186.108 117.86 186.075 117.247 185.865 116.705C185.654 116.163 185.278 115.703 184.738 115.324C184.209 114.963 183.536 114.695 182.719 114.521C181.961 114.36 181.26 114.335 180.615 114.446C179.985 114.56 179.447 114.826 179.001 115.244C178.57 115.664 178.274 116.253 178.112 117.011C177.951 117.769 177.968 118.417 178.164 118.956C178.375 119.497 178.689 119.883 179.106 120.111L178.499 122.964C177.705 122.608 177.049 122.112 176.533 121.474C176.017 120.836 175.671 120.087 175.497 119.226C175.32 118.381 175.338 117.461 175.55 116.465Z" fill="#132B18"/>
<path d="M177.624 104.673L194.208 105.948L193.965 109.106L177.382 107.831L177.624 104.673ZM191.964 104.222L194.326 104.404L193.965 109.106L191.602 108.924L191.964 104.222Z" fill="#132B18"/>
<path d="M177.223 96.1123C177.164 95.0355 177.294 94.0927 177.614 93.2839C177.935 92.4903 178.384 91.8112 178.961 91.2467C179.539 90.6974 180.2 90.2728 180.944 89.9729C181.688 89.673 182.455 89.5011 183.243 89.4573L183.676 89.4333C184.51 89.387 185.313 89.4718 186.086 89.6875C186.874 89.9175 187.579 90.2815 188.2 90.7795C188.836 91.2766 189.35 91.9022 189.742 92.6563C190.149 93.4247 190.382 94.3246 190.439 95.3559C190.499 96.4326 190.34 97.4074 189.963 98.2803C189.6 99.1523 189.061 99.8592 188.346 100.401C187.632 100.958 186.783 101.294 185.801 101.409L185.63 98.3382C186.263 98.2271 186.779 97.9246 187.177 97.4309C187.577 96.9524 187.754 96.3112 187.709 95.5074C187.671 94.8098 187.471 94.2352 187.112 93.7835C186.753 93.3471 186.271 93.0315 185.667 92.8369C185.078 92.6414 184.405 92.5647 183.646 92.6068C182.918 92.6472 182.265 92.79 181.685 93.0351C181.106 93.2954 180.662 93.6624 180.354 94.1358C180.046 94.6245 179.913 95.2328 179.953 95.9608C179.984 96.5067 180.108 96.9714 180.327 97.3548C180.546 97.7381 180.837 98.0339 181.198 98.242C181.56 98.4653 181.963 98.5951 182.406 98.6313L182.577 101.702C181.572 101.697 180.676 101.45 179.889 100.962C179.117 100.487 178.495 99.8297 178.022 98.9888C177.55 98.1631 177.284 97.2042 177.223 96.1123Z" fill="#132B18"/>
<path d="M176.129 84.1648L188.276 81.8174L188.877 84.9268L176.73 87.2742L176.129 84.1648ZM185.621 80.5669L187.947 80.1173L188.877 84.9268L186.55 85.3764L185.621 80.5669ZM189.95 82.6772C189.832 82.0658 189.901 81.5807 190.156 81.2219C190.43 80.8751 190.805 80.6557 191.282 80.5634C191.789 80.4654 192.227 80.5279 192.595 80.7507C192.965 80.9884 193.21 81.413 193.328 82.0245C193.446 82.6359 193.376 83.1136 193.118 83.4574C192.859 83.8013 192.477 84.0222 191.97 84.1202C191.492 84.2125 191.062 84.1486 190.679 83.9286C190.312 83.7058 190.068 83.2887 189.95 82.6772Z" fill="#132B18"/>
<path d="M174.824 79.3346C174.488 78.2461 174.348 77.3038 174.404 76.5075C174.479 75.7212 174.796 75.0508 175.356 74.4963C175.931 73.9373 176.791 73.4807 177.938 73.1265L188.655 69.8397L189.529 72.6696L178.616 76.017C178.036 76.1963 177.633 76.4877 177.408 76.8911C177.202 77.3045 177.188 77.8014 177.367 78.3819L177.939 80.2323L175.349 81.0325L174.824 79.3346ZM182.519 69.6606L184.739 68.9747L187.321 77.3338L185.101 78.0198L182.519 69.6606Z" fill="#132B18"/>
<path d="M169.708 65.4518L180.987 60.368L182.017 62.6528L177.24 64.8062L177.211 64.7439C178.832 64.0136 180.213 63.8074 181.356 64.1253C182.499 64.4432 183.373 65.2737 183.979 66.6169L184.166 67.0323L181.653 68.1652L181.297 67.3759C180.86 66.4066 180.257 65.7705 179.487 65.4676C178.737 65.1723 177.871 65.2463 176.888 65.6894L171.01 68.339L169.708 65.4518Z" fill="#132B18"/>
<path d="M166.969 60.4141L170.058 58.4364L169.775 57.9951L173.21 55.7963C173.811 55.4114 174.165 54.9776 174.271 54.4951C174.377 54.0125 174.233 53.4642 173.84 52.8501C173.635 52.5303 173.383 52.1507 173.084 51.7111C172.784 51.2716 172.475 50.8297 172.154 50.3856C171.855 49.946 171.578 49.5553 171.323 49.2135L173.587 47.764C173.801 48.0419 174.039 48.3581 174.302 48.7127C174.566 49.0673 174.82 49.4365 175.066 49.8203C175.332 50.2086 175.576 50.5755 175.797 50.9209C176.485 51.9955 176.914 52.9746 177.083 53.8584C177.26 54.7549 177.162 55.5747 176.79 56.3178C176.427 57.0737 175.759 57.7628 174.786 58.3852L168.32 62.5249L166.969 60.4141ZM164.55 57.2281C164.067 56.4734 163.776 55.7222 163.676 54.9745C163.584 54.2397 163.685 53.5527 163.979 52.9135C164.282 52.2871 164.785 51.7487 165.488 51.2983C166.256 50.8069 167.001 50.5911 167.725 50.6509C168.457 50.7235 169.161 51.021 169.838 51.5434C170.524 52.0786 171.161 52.8067 171.751 53.7278L173.299 56.1455L171.706 57.1651L170.134 54.7089C169.74 54.0949 169.284 53.7199 168.764 53.5838C168.265 53.4523 167.779 53.5381 167.306 53.8411C166.832 54.1441 166.551 54.5497 166.461 55.0579C166.38 55.5788 166.536 56.1463 166.929 56.7604C167.167 57.1313 167.447 57.4294 167.772 57.6545C168.117 57.8842 168.516 57.9991 168.966 57.999C169.438 58.0036 169.964 57.8385 170.543 57.5037L170.212 58.6352C169.442 59.038 168.713 59.252 168.026 59.2772C167.347 59.3151 166.71 59.1642 166.113 58.8245C165.538 58.4894 165.017 57.9573 164.55 57.2281Z" fill="#132B18"/>
<path d="M153.95 44.568C152.728 43.3848 152.016 42.1986 151.814 41.0096C151.634 39.8202 151.971 38.7513 152.825 37.8029L154.872 39.7837C154.609 40.121 154.508 40.563 154.571 41.1099C154.633 41.6567 154.992 42.247 155.647 42.8809C156.193 43.4091 156.719 43.7282 157.225 43.8382C157.743 43.9587 158.165 43.8498 158.493 43.5115C158.778 43.2168 158.88 42.8607 158.798 42.4431C158.727 42.0361 158.423 41.52 157.887 40.895L157.18 40.0525C156.293 38.9819 155.803 37.9587 155.712 36.9826C155.621 36.0066 155.946 35.1366 156.685 34.3727C157.277 33.7616 157.926 33.3966 158.633 33.2777C159.34 33.1588 160.061 33.2545 160.797 33.5649C161.554 33.8748 162.282 34.3679 162.98 35.044C164.071 36.1005 164.723 37.1964 164.935 38.3315C165.146 39.4667 164.82 40.514 163.954 41.4733L161.908 39.4924C162.182 39.1657 162.283 38.7559 162.21 38.2629C162.138 37.77 161.834 37.2647 161.3 36.747C160.819 36.2822 160.359 36.0157 159.917 35.9477C159.476 35.8797 159.112 35.993 158.827 36.2876C158.552 36.5714 158.445 36.89 158.504 37.2435C158.574 37.6076 158.823 38.0493 159.251 38.5687L159.957 39.4112C160.899 40.5346 161.438 41.6161 161.573 42.6559C161.719 43.7062 161.406 44.6297 160.635 45.4264C160.064 46.0157 159.404 46.3701 158.654 46.4897C157.926 46.6089 157.156 46.5086 156.345 46.1888C155.534 45.8689 154.736 45.3287 153.95 44.568Z" fill="#132B18"/>
<path d="M139.656 38.8696C139.163 38.5402 138.671 38.1834 138.179 37.7992C137.699 37.4235 137.259 37.0563 136.86 36.6975L138.329 34.5009C138.75 34.8555 139.207 35.2248 139.699 35.609C140.183 36.0058 140.652 36.3562 141.106 36.6603C141.952 37.2262 142.701 37.5813 143.354 37.7256C144.019 37.8784 144.62 37.814 145.155 37.5327C145.695 37.2724 146.189 36.8077 146.636 36.1386L147.992 34.1124L149.421 33.2048C148.75 34.1263 148.014 34.8033 147.213 35.2359C146.42 35.6559 145.603 35.8399 144.76 35.788C143.926 35.7234 143.111 35.4251 142.316 34.8929C141.609 34.42 141.054 33.8566 140.651 33.203C140.26 32.5578 140.012 31.8623 139.908 31.1165C139.817 30.3791 139.869 29.6188 140.064 28.8356C140.259 28.0523 140.597 27.3009 141.079 26.5813L141.345 26.1837C141.826 25.4641 142.387 24.871 143.028 24.4045C143.691 23.9337 144.393 23.6084 145.134 23.4285C145.876 23.2486 146.628 23.2309 147.39 23.3753C148.153 23.5198 148.893 23.8328 149.613 24.3142C150.459 24.8801 151.069 25.5531 151.442 26.333C151.829 27.1214 151.966 27.9811 151.855 28.9119C151.744 29.8427 151.37 30.8258 150.732 31.861L150.227 31.6327L153.204 27.1827L155.287 28.5763L149.218 37.6468C148.382 38.8966 147.492 39.7629 146.547 40.2459C145.603 40.7288 144.564 40.8471 143.431 40.6009C142.303 40.3758 141.044 39.7987 139.656 38.8696ZM144.581 33.1463C145.086 33.4842 145.623 33.6788 146.192 33.7303C146.76 33.7818 147.314 33.6774 147.854 33.4171C148.394 33.1568 148.866 32.7237 149.272 32.1177L149.715 31.4549C150.104 30.8742 150.3 30.2932 150.306 29.7118C150.323 29.1389 150.192 28.6121 149.91 28.1314C149.637 27.6381 149.254 27.2267 148.762 26.8973C148.207 26.5257 147.626 26.3288 147.019 26.3068C146.433 26.2805 145.864 26.4207 145.312 26.7273C144.76 27.034 144.268 27.5092 143.837 28.153C143.415 28.7842 143.168 29.4136 143.095 30.0412C143.022 30.6688 143.11 31.2482 143.358 31.7794C143.618 32.319 144.026 32.7747 144.581 33.1463Z" fill="#132B18"/>
<path d="M129.404 28.5147C128.393 28.0997 127.567 27.572 126.926 26.9317C126.286 26.2914 125.811 25.5877 125.502 24.8206C125.199 24.0394 125.051 23.2399 125.058 22.4219C125.079 21.6098 125.245 20.8243 125.557 20.0654L125.738 19.6228C126.061 18.8358 126.507 18.1487 127.076 17.5614C127.666 16.9658 128.34 16.5035 129.098 16.1745C129.877 15.8372 130.716 15.6726 131.616 15.6805C132.521 15.6743 133.459 15.8702 134.429 16.268C135.398 16.6657 136.203 17.1848 136.843 17.8251C137.49 18.4513 137.964 19.155 138.268 19.9362C138.591 20.7091 138.746 21.5115 138.733 22.3435C138.726 23.1614 138.561 23.9638 138.238 24.7508L138.056 25.1934C137.745 25.9523 137.305 26.6253 136.735 27.2127C136.18 27.8058 135.52 28.2738 134.756 28.6169C133.997 28.9458 133.165 29.1134 132.259 29.1195C131.354 29.1257 130.402 28.9241 129.404 28.5147ZM130.433 26.0064C131.15 26.3004 131.818 26.3937 132.436 26.2863C133.061 26.1649 133.609 25.8891 134.081 25.4588C134.559 25.0146 134.939 24.4481 135.222 23.7596C135.51 23.0569 135.63 22.3838 135.582 21.7403C135.554 21.0885 135.35 20.5042 134.971 19.9875C134.612 19.4626 134.088 19.0588 133.4 18.7763C132.711 18.4938 132.047 18.4104 131.409 18.5261C130.79 18.6335 130.235 18.9064 129.743 19.3449C129.257 19.7694 128.87 20.333 128.582 21.0356C128.299 21.7242 128.172 22.3943 128.2 23.0462C128.248 23.6897 128.452 24.274 128.811 24.7989C129.176 25.3099 129.717 25.7123 130.433 26.0064Z" fill="#132B18"/>
<path d="M117.748 24.3169L121.81 8.18841L124.881 8.96183L120.819 25.0903L117.748 24.3169ZM119.729 10.1078L120.307 7.81005L124.881 8.96183L124.302 11.2596L119.729 10.1078Z" fill="#132B18"/>
<path d="M109.123 23.2182C108.111 23.1144 107.241 22.8114 106.514 22.3093C105.788 21.7921 105.249 21.0955 104.896 20.2196C104.543 19.3436 104.404 18.314 104.48 17.1308L104.956 17.1796L104.428 22.3245L101.935 22.0688L103.632 5.52351L106.782 5.84654L105.934 14.1192L104.963 15.3251C105.153 14.0621 105.511 13.03 106.036 12.2287C106.576 11.4291 107.246 10.8564 108.044 10.5108C108.843 10.1652 109.719 10.0412 110.671 10.1388C111.517 10.2256 112.271 10.4632 112.934 10.8518C113.596 11.2404 114.147 11.7473 114.587 12.3726C115.028 12.9828 115.339 13.6788 115.518 14.4607C115.713 15.244 115.764 16.0815 115.673 16.973L115.624 17.4489C115.533 18.3404 115.311 19.1575 114.96 19.9002C114.609 20.6429 114.147 21.2826 113.573 21.8192C113 22.3407 112.334 22.7305 111.575 22.9885C110.832 23.233 110.015 23.3096 109.123 23.2182ZM108.693 20.4943C109.373 20.5641 109.979 20.4583 110.512 20.177C111.061 19.8821 111.51 19.4548 111.857 18.8949C112.205 18.3351 112.418 17.6699 112.497 16.8992C112.577 16.1135 112.504 15.4189 112.275 14.8153C112.047 14.2116 111.692 13.7248 111.211 13.3549C110.745 12.9864 110.172 12.7673 109.492 12.6976C108.873 12.6341 108.285 12.7112 107.728 12.929C107.186 13.1483 106.722 13.5053 106.335 14.0001C105.964 14.4964 105.74 15.1147 105.664 15.8551L105.571 16.7617C105.498 17.4719 105.603 18.0933 105.884 18.626C106.165 19.1587 106.556 19.5882 107.057 19.9144C107.558 20.2406 108.103 20.4339 108.693 20.4943Z" fill="#132B18"/>
<path d="M135.265 95.2667V100.733H129.799V111.667H124.332V117.133H116.132V100.733H77.8653V117.133H69.6653V111.667H64.1986V100.733H58.7319V95.2667H64.1986V84.3334H69.6653V78.8667H77.8653V95.2667H116.132V78.8667H124.332V84.3334H129.799V95.2667H135.265Z" fill="#BBF816"/>
</svg>
